<svg   preserveAspectRatio="xMidYMid" width="28px" height="20px" enable-background="new 0 0 100 100" viewBox="0 0 100 110" xml:space="preserve" xmlns="http://www.w3.org/2000/svg"><path d="m50,32c-7.168,0-13,5.832-13,13s5.832,13 13,13 13-5.832 13-13-5.832-13-13-13z"></path><path d="m87,13h-15c0-7.18-5.82-13-13-13h-18c-7.18,0-13,5.82-13,13h-15c-7.18,0-13,5.82-13,13v38c0,7.18 5.82,13 13,13h74c7.18,0 13-5.82 13-13v-38c0-7.18-5.82-13-13-13zm-37,55c-12.683,0-23-10.318-23-23s10.317-23 23-23 23,10.318 23,23-10.317,23-23,23z"></path>
<text text-anchor="end" transform="translate(99,109)scale(2.3)">.PNG</text>
</svg>
